<?xml version="1.0" standalone="no"?><!DOCTYPE svg PUBLIC "-//W3C//DTD SVG 1.1//EN" "http://www.w3.org/Graphics/SVG/1.1/DTD/svg11.dtd"><svg t="1684338112221" class="icon" viewBox="0 0 1024 1024" version="1.1" xmlns="http://www.w3.org/2000/svg" p-id="1090" xmlns:xlink="http://www.w3.org/1999/xlink" width="200" height="200"><path d="M512.298667 831.146667a32 32 0 0 1 32 32v42.666666a32 32 0 0 1-64 0v-42.666666a32 32 0 0 1 32-32z m270.933333-93.461334l30.165333 30.165334a32 32 0 1 1-45.248 45.248L737.984 782.933333a32 32 0 0 1 45.248-45.248z m-496.597333 0a32 32 0 0 1 0 45.226667l-30.186667 30.186667a32 32 0 0 1-45.226667-45.248l30.144-30.165334a32 32 0 0 1 45.269334 0zM512 234.666667c153.173333 0 277.333333 124.16 277.333333 277.333333s-124.16 277.333333-277.333333 277.333333-277.333333-124.16-277.333333-277.333333 124.16-277.333333 277.333333-277.333333z m0 64c-117.824 0-213.333333 95.509333-213.333333 213.333333s95.509333 213.333333 213.333333 213.333333 213.333333-95.509333 213.333333-213.333333-95.509333-213.333333-213.333333-213.333333z m394.112 181.333333a32 32 0 0 1 0 64h-42.666667a32 32 0 0 1 0-64h42.666667z m-744.96 0a32 32 0 0 1 0 64h-42.666667a32 32 0 0 1 0-64h42.666667zM813.397333 210.901333a32 32 0 0 1 0 45.248l-30.165333 30.165334a32 32 0 0 1-45.248-45.226667l30.165333-30.186667a32 32 0 0 1 45.248 0z m-556.949333 0l30.186667 30.165334a32 32 0 1 1-45.269334 45.248L211.2 256.149333a32 32 0 1 1 45.248-45.248zM512.298667 86.186667a32 32 0 0 1 32 32v42.666666a32 32 0 0 1-64 0v-42.666666a32 32 0 0 1 32-32z" fill="#333333" p-id="1091"></path></svg>