<?xml version="1.0" standalone="no"?><!DOCTYPE svg PUBLIC "-//W3C//DTD SVG 1.1//EN" "http://www.w3.org/Graphics/SVG/1.1/DTD/svg11.dtd"><svg t="1682952033517" class="icon" viewBox="0 0 1024 1024" version="1.1" xmlns="http://www.w3.org/2000/svg" p-id="4287" xmlns:xlink="http://www.w3.org/1999/xlink" width="48" height="48"><path d="M296.149333 879.317333a32.128 32.128 0 0 1-18.090666-28.842666v-86.101334H135.296a45.696 45.696 0 0 1-45.397333-45.653333V187.136a45.610667 45.610667 0 0 1 45.397333-45.568h753.066667a45.824 45.824 0 0 1 45.824 45.568v354.133333h-64V205.269333l-716.330667 0.256v494.592H310.186667a31.829333 31.829333 0 0 1 31.829333 32.085334v52.736l100.437333-77.909334a31.744 31.744 0 0 1 19.498667-6.656h128v64h-116.906667l-143.317333 111.232a32 32 0 0 1-19.498667 6.912 33.792 33.792 0 0 1-14.08-3.2z m540.16-28.842666l-14.592-58.496h-75.178666l-14.848 58.496h-61.909334l78.677334-254.08h73.258666l78.762667 254.08z m-72.746666-127.104l-5.418667 21.333333h52.010667l-5.674667-21.333333c-6.656-25.173333-13.098667-55.765333-20.010667-81.578667h-1.408c-6.357333 26.624-13.098667 56.448-19.498666 81.621333z m-282.666667-89.984v-117.674667H407.125333v20.010667H350.890667V334.122667h130.005333V268.288h59.178667v65.834667h132.736v199.850666h-58.752v-18.261333h-73.984v117.674667z m59.178667-172.416h73.984V389.12h-73.984z m-132.906667 0h73.770667V389.12H407.168z" p-id="4288"></path></svg>